<svg width="382" height="350" viewBox="0 0 382 350" fill="none" xmlns="http://www.w3.org/2000/svg">
<path d="M272.555 230.577C270.991 230.975 269.23 231.349 267.851 230.509C266.597 229.745 266.078 228.213 265.656 226.806C261.41 212.584 259.291 196.979 252.182 183.827C250.312 180.365 247.791 176.903 244.056 175.673C240.003 174.338 235.427 176.059 232.327 178.99C229.227 181.925 227.341 185.89 225.705 189.834C218.986 206.03 215.331 223.288 211.334 240.296C210.333 244.562 209.348 248.776 208.206 253.018C207.607 255.245 207.008 257.473 206.409 259.696C206.107 260.81 205.809 261.924 205.508 263.038C205.271 263.914 204.716 265.08 204.716 265.985C203.823 269.302 202.923 272.635 201.539 275.78C200.968 277.078 200.285 278.377 199.195 279.286C196.899 281.192 193.297 280.79 190.892 279.02C188.488 277.251 187.088 274.433 186.148 271.598C183.976 265.064 182.014 258.438 180.249 251.779C175.078 232.58 169.964 213.28 165.018 193.992C163.952 189.838 162.863 185.58 160.446 182.034C158.034 178.488 153.981 175.737 149.707 176.091C146.305 176.373 143.33 178.54 141.038 181.073C132.662 190.337 131.939 203.469 130.109 215.194C127.982 228.84 125.272 242.455 120.869 255.571C120.523 256.6 120.141 257.67 119.345 258.406C117.572 260.046 114.705 259.314 112.558 258.205C107.323 255.499 103.137 251.224 99.0843 247.039C77.231 224.45 55.7677 200.715 41.1077 172.674C33.6611 158.428 27.2559 142.847 24.7148 126.957C22.25 111.525 23.0421 95.5219 27.7867 80.5885C29.9057 73.922 32.7966 67.5088 36.3913 61.5097C47.1189 43.617 64.3 29.5803 84.7821 24.6267C103.101 20.1957 123.093 23.1349 139.361 32.6522C144.258 35.5151 149.051 39.0293 154.676 39.753C160.302 40.4768 167 36.9706 167.189 31.3012C167.326 27.208 164.166 23.8104 161.045 21.1607C138.967 2.42367 107.472 -4.04182 79.3942 3.05092C51.3166 10.1437 27.0951 30.1794 13.4926 55.7438C5.13728 71.4452 0.601773 89.1569 0.376606 106.941C-0.0254785 138.866 13.2031 169.039 29.4835 195.837C42.8367 217.823 59.0849 237.815 76.8249 256.407C76.8249 256.407 95.6907 277.577 103.053 281.992C104.987 283.154 107.138 283.99 109.317 284.573C128.826 289.792 139.47 270.971 143.76 254.887C146.016 246.432 146.711 237.775 147.64 229.102C147.753 228.044 147.877 226.947 148.649 226.126C148.951 225.805 149.353 225.572 149.795 225.519C151.09 225.37 151.789 226.597 152.224 227.654C152.915 229.339 153.438 231.088 153.864 232.861C157.503 248.056 161.54 263.098 165.328 278.248C168.516 290.5 175.681 300.729 189.24 303.21C198.463 304.898 208.427 301.871 215.15 295.337C223.276 287.436 226.151 275.731 228.672 264.682C231.466 252.419 234.269 240.155 237.104 227.896C237.389 226.669 238.35 225.672 239.593 225.471C241.092 225.23 241.88 226.364 242.423 227.449C245.001 232.6 244.852 238.675 247.763 243.697C250.352 248.165 255.772 250.195 260.75 250.448C265.704 250.702 270.597 249.443 275.394 248.193C278.691 247.332 281.988 246.476 285.285 245.615C291.091 244.103 296.894 242.592 302.7 241.08L355.417 228.438C357.93 227.783 360.021 226.042 361.114 223.69C364.215 217.035 358.191 209.766 351.074 211.575L272.555 230.569V230.577Z" fill="white"/>
<path d="M311.264 14.5992C280.701 3.91985 248.008 10.5582 222.789 30.3568C219.259 33.1271 215.902 36.1146 212.733 39.2951C203.57 48.4987 195.809 59.1499 189.834 70.6776C187.643 74.9035 185.697 79.2581 184.036 83.7172C183.843 83.7172 183.65 83.7011 183.453 83.7011C165.713 83.7011 151.283 98.1318 151.283 115.872C151.283 133.612 165.713 148.042 183.453 148.042C201.193 148.042 215.624 133.612 215.624 115.872C215.624 106.33 211.446 97.7498 204.828 91.8553C211.893 77.3522 220.123 63.2833 231.949 52.1175C246.572 38.306 266.271 30.3487 286.471 32.0174C303.861 33.4568 320.628 41.8121 333.125 53.963C354.584 74.8392 362.429 106.752 356.683 135.694C351.552 161.548 336.885 190.691 320.041 211.547C318.871 212.999 320.21 215.106 322.023 214.667L349.289 208.053C350.025 207.876 350.668 207.434 351.094 206.811C366.208 184.688 377.676 153.623 380.623 126.913L381.049 118.775C381.106 72.9454 354.99 29.8703 311.268 14.5992H311.264ZM183.453 133.137C173.932 133.137 166.188 125.393 166.188 115.872C166.188 106.35 173.932 98.6063 183.453 98.6063C192.975 98.6063 200.719 106.35 200.719 115.872C200.719 125.393 192.975 133.137 183.453 133.137Z" fill="white"/>
<path d="M183.453 98.6064C173.932 98.6064 166.188 106.351 166.188 115.872C166.188 125.393 173.932 133.137 183.453 133.137C192.974 133.137 200.718 125.393 200.718 115.872C200.718 106.351 192.974 98.6064 183.453 98.6064Z" fill="#4A91E5"/>
<path d="M181.245 155.654C160.317 155.654 143.289 138.626 143.289 117.697C143.289 115.228 145.291 113.226 147.76 113.226C150.229 113.226 152.231 115.228 152.231 117.697C152.231 133.696 165.246 146.712 181.245 146.712C183.714 146.712 185.716 148.714 185.716 151.183C185.716 153.652 183.714 155.654 181.245 155.654Z" fill="#4A91E5"/>
<path d="M303.784 246.581C291.911 249.673 280.878 255.363 271.469 263.236C243.074 286.995 210.565 313.588 196.661 323.13C195.805 323.717 194.872 324.328 193.831 324.308C192.753 324.288 191.82 323.588 190.968 322.921C180.413 314.638 169.967 306.21 159.489 297.831C154.173 293.581 148.858 289.331 143.542 285.081C142.267 284.059 140.989 283.042 139.714 282.021C137.993 280.642 137.873 280.027 136.28 281.583C134.33 283.665 132.239 285.418 130.036 286.826C130.024 286.834 130.012 286.842 130 286.85C129.972 286.866 129.944 286.886 129.915 286.902C129.686 287.047 129.453 287.188 129.22 287.328C129.204 287.34 129.184 287.348 129.168 287.361C125.34 289.616 121.178 290.859 116.791 291.028C116.751 291.028 116.711 291.028 116.675 291.032C116.369 291.044 116.068 291.048 115.762 291.048C115.428 291.048 115.091 291.04 114.753 291.028C114.745 291.028 114.737 291.028 114.729 291.028C114.399 291.015 114.069 290.995 113.736 290.971C113.736 290.971 113.732 290.971 113.728 290.971C126.968 301.948 140.148 313.001 153.65 323.657C160.128 328.767 166.674 333.805 173.397 338.594C178.129 341.963 182.62 346.109 188.141 348.164C194.293 350.455 199.218 348.288 204.474 344.862C227.533 329.829 301.834 266.673 323.342 249.476C324.906 248.226 327.467 246.002 330.322 243.417C331.596 242.263 330.495 240.168 328.822 240.57L304.054 246.509L303.788 246.577L303.784 246.581Z" fill="white"/>
<path d="M302.213 2.07391C301.69 2.08597 338.71 3.39677 365.484 37.8432C368.243 41.3896 373.671 37.5135 371.158 33.7902C359.453 16.4604 338.766 1.27779 302.217 2.07391H302.213Z" fill="#4A91E5"/>
<path d="M45.9566 60.8062C45.9566 60.8062 27.0145 85.9645 31.4736 121.698C32.0043 125.968 38.3774 125.308 38.0758 121.018C36.7851 102.607 37.7863 80.2549 45.9566 60.8062Z" fill="#4A91E5"/>
</svg>
