<svg width="149" height="43" viewBox="0 0 149 43" fill="none" xmlns="http://www.w3.org/2000/svg">
<path d="M23.792 32.0536C23.792 26.1486 28.6443 21.3535 34.6087 21.3535C39.1986 21.3535 43.0867 24.3357 44.5487 28.4862H42.1808C40.8657 25.504 37.971 23.4579 34.6098 23.4579C29.9324 23.4579 26.1318 27.3168 26.1318 32.0525C26.1318 36.7882 29.9324 40.6471 34.6098 40.6471C37.9721 40.6471 40.8657 38.5719 42.1808 35.6188H44.5778C43.1159 39.7704 39.1986 42.7515 34.6087 42.7515C28.6454 42.7515 23.792 37.9575 23.792 32.0514V32.0536Z" fill="white"/>
<path d="M46.9141 34.9739C46.9141 30.6766 50.4512 27.1978 54.8068 27.1978C59.1625 27.1978 62.6996 30.6766 62.6996 34.9739C62.6996 39.2712 59.1625 42.7501 54.8068 42.7501C50.4512 42.7501 46.9141 39.2712 46.9141 34.9739ZM54.8068 40.7623C57.9348 40.7623 60.4786 38.131 60.4786 34.9739C60.4786 31.8168 57.9348 29.1855 54.8068 29.1855C51.6789 29.1855 49.1351 31.7877 49.1351 34.9739C49.1351 38.1602 51.6789 40.7623 54.8068 40.7623Z" fill="white"/>
<path d="M66.211 27.6653H68.1988V29.653C69.339 28.1619 71.1227 27.1978 73.2271 27.1978C76.5893 27.1978 79.659 29.5947 79.659 32.5769V42.2826H77.4369V32.6935C77.4369 30.7641 75.42 29.1855 72.9345 29.1855C70.449 29.1855 68.432 30.7641 68.432 32.6935V42.2826H66.21V27.6653H66.211Z" fill="white"/>
<path d="M82.9045 37.8698H85.1266C85.1266 39.39 86.6468 40.7634 89.2198 40.7634C91.1493 40.7634 92.9028 39.9741 92.9028 38.5413C92.9028 37.0211 90.9733 36.4661 88.8095 35.8518C86.1491 35.0916 83.1377 34.068 83.1377 31.3201C83.1377 28.1047 86.7624 27.1978 88.9553 27.1978C92.2884 27.1978 94.8894 29.3021 94.8894 31.9043H92.6674C92.6674 30.56 91.3231 29.1855 88.7793 29.1855C86.9664 29.1855 85.3587 29.8873 85.3587 31.2316C85.3587 32.7227 87.2882 33.3068 89.4217 33.892C92.1113 34.623 95.1227 35.7049 95.1227 38.482C95.1227 41.6974 91.498 42.7501 89.1 42.7501C85.6211 42.7501 82.9023 40.5572 82.9023 37.8676L82.9045 37.8698Z" fill="white"/>
<path d="M98.397 37.3721V27.6665H100.619V37.2555C100.619 39.185 102.636 40.7635 105.121 40.7635C107.607 40.7635 109.624 39.185 109.624 37.2555V27.6665H111.846V42.2838H109.858V40.296C108.718 41.7871 106.934 42.7513 104.83 42.7513C101.468 42.7513 98.398 40.3543 98.398 37.3721H98.397Z" fill="white"/>
<path d="M116.288 20.8862H118.51V42.2852H116.288V20.8862Z" fill="white"/>
<path d="M134.73 40.4129H129.354C128.127 40.4129 127.132 39.507 127.132 38.3668V29.7139H131.605V27.7261H127.132V23.8672H124.91V27.7261H121.548V29.7139H124.91V38.3668C124.91 40.5889 126.898 42.3424 129.353 42.3424H137.143C136.418 41.9569 135.754 41.4667 135.163 40.8783C135.012 40.7282 134.868 40.5727 134.73 40.4129Z" fill="white"/>
<path d="M133.213 35.0311C133.213 30.7337 136.751 27.2549 140.96 27.2549C143.475 27.2549 145.667 28.5117 147.012 30.4703V27.7224H149V42.3397H147.012V39.5918C145.668 41.5504 143.475 42.8072 140.96 42.8072C136.751 42.8072 133.213 39.3284 133.213 35.0311ZM141.106 40.8195C144.234 40.8195 146.778 38.2173 146.778 35.0311C146.778 31.8448 144.234 29.2427 141.106 29.2427C137.978 29.2427 135.434 31.8448 135.434 35.0311C135.434 38.2173 137.978 40.8195 141.106 40.8195Z" fill="white"/>
<path d="M74.6791 15.2502C74.2602 14.2763 73.6847 13.4233 72.9548 12.6923C72.2249 11.9613 71.3568 11.3815 70.3526 10.9529C69.3485 10.5242 68.2623 10.3094 67.093 10.3094C65.9236 10.3094 64.8612 10.5188 63.8484 10.9378C62.8345 11.3567 61.9481 11.9268 61.1879 12.648C60.4278 13.3693 59.8232 14.2223 59.3751 15.2059C59.0944 15.8224 58.9011 16.4627 58.7963 17.1289V8.83122C58.7963 7.24402 57.5223 5.95375 55.9405 5.92784C54.9817 5.91164 54.079 6.38456 53.5165 7.16088L49.8303 12.2421C49.1188 13.2235 47.6568 13.2246 46.942 12.2453L43.2084 7.12309C42.6609 6.3716 41.7864 5.92676 40.8567 5.92676H40.8556C39.2522 5.92676 37.9512 7.22675 37.9512 8.83122V21.3917C39.046 21.7458 40.0847 22.2749 41.0359 22.9713C41.5002 23.3103 41.9343 23.6828 42.337 24.0845C42.337 20.9619 42.337 17.8394 42.337 14.7168C42.337 14.5095 42.3608 14.2568 42.5983 14.205C42.7354 14.1748 42.8769 14.2298 42.9676 14.3367C43.8799 15.4132 44.5321 16.8071 45.7274 17.6299C46.8762 18.4213 48.391 18.6448 49.7256 18.2497C51.6248 17.686 52.5825 15.9498 53.6946 14.4512C53.7789 14.3378 53.8685 14.219 54.0337 14.2093C54.1309 14.2039 54.228 14.2374 54.2971 14.3065C54.4116 14.4209 54.4137 14.584 54.4137 14.7362C54.4083 16.0794 54.4116 17.4237 54.4116 18.7668V25.2268C54.4116 25.8725 54.9342 26.3951 55.5798 26.3951H57.6281C58.2738 26.3951 58.7963 25.8725 58.7963 25.2268V19.5648C58.8989 20.2158 59.0868 20.8453 59.36 21.451C59.7983 22.426 60.3933 23.2779 61.1437 24.0089C61.8941 24.7399 62.7805 25.3154 63.8041 25.7332C64.8277 26.1522 65.9236 26.3616 67.093 26.3616C67.7948 26.3616 68.4858 26.2828 69.1682 26.1262C69.8506 25.9686 70.5027 25.7483 71.1268 25.4644C71.7498 25.1793 72.3253 24.836 72.8511 24.4332C73.377 24.0305 73.8348 23.5749 74.2256 23.0641L72.9181 22.263C71.7887 21.5709 70.3991 21.4672 69.1736 21.9693C69.1671 21.9725 69.1606 21.9747 69.1531 21.9779C68.4804 22.2511 67.7937 22.3872 67.0919 22.3872C66.1169 22.3872 65.3136 22.1226 64.6798 21.5914C64.046 21.0613 63.6022 20.4296 63.3495 19.6976H74.5528C74.9307 19.6976 75.2449 19.4082 75.2762 19.0324V19.026C75.2956 18.7917 75.3064 18.5682 75.3064 18.3533C75.3064 17.2617 75.097 16.2295 74.678 15.2545L74.6791 15.2502ZM63.4683 16.683C63.7804 16.0211 64.2436 15.4553 64.8568 14.9878C65.4712 14.5203 66.2162 14.286 67.093 14.286C67.9697 14.286 68.7201 14.5203 69.3442 14.9878C69.9672 15.4553 70.4261 16.0211 70.7187 16.683H63.4683Z" fill="#0092E8"/>
<path d="M88.8425 5.30636C87.6311 5.30636 86.6496 6.28783 86.6496 7.49928V12.0309C86.0255 11.5245 85.3388 11.1099 84.5884 10.7881C83.838 10.4664 83.0541 10.3055 82.2346 10.3055C81.143 10.3055 80.1097 10.5149 79.1358 10.9339C78.1608 11.3528 77.3089 11.9229 76.5779 12.6442C75.943 13.2715 75.4248 13.9981 75.0253 14.823C75.0609 14.8997 75.0955 14.9753 75.1289 15.053C75.5727 16.0852 75.7973 17.192 75.7973 18.344C75.7973 18.5675 75.7865 18.8072 75.766 19.0566V19.0653C75.7131 19.6883 75.1818 20.1763 74.5556 20.1763H74.4336C74.5362 20.6093 74.6755 21.0315 74.8525 21.4428C75.2715 22.4178 75.8416 23.2697 76.5628 24.0007C77.2841 24.7317 78.1317 25.3072 79.1066 25.725C80.0806 26.1439 81.1236 26.3534 82.2346 26.3534C83.053 26.3534 83.8326 26.1915 84.5733 25.8675C85.314 25.5436 86.0061 25.1161 86.6485 24.5859V25.7682C89.0703 25.7682 91.0333 23.8053 91.0333 21.3834V7.49712C91.0333 6.28675 90.0518 5.3042 88.8404 5.3042L88.8425 5.30636ZM86.4444 19.9183C86.2296 20.4139 85.9402 20.8414 85.5785 21.1999C85.2168 21.5594 84.786 21.8456 84.2872 22.0594C83.7883 22.2731 83.256 22.38 82.6881 22.38C82.1202 22.38 81.5878 22.2731 81.089 22.0594C80.5902 21.8456 80.1605 21.5594 79.7977 21.1999C79.436 20.8403 79.1477 20.4128 78.9317 19.9183C78.7169 19.4227 78.6089 18.8936 78.6089 18.33C78.6089 17.7664 78.7158 17.2373 78.9317 16.7428C79.1466 16.2472 79.436 15.8196 79.7977 15.4612C80.1594 15.1016 80.5902 14.8155 81.089 14.6017C81.5878 14.3879 82.1212 14.281 82.6881 14.281C83.2549 14.281 83.7883 14.3879 84.2872 14.6017C84.786 14.8155 85.2157 15.1016 85.5785 15.4612C85.9402 15.8207 86.2285 16.2483 86.4444 16.7428C86.6593 17.2384 86.7673 17.7675 86.7673 18.33C86.7673 18.8925 86.6593 19.4227 86.4444 19.9183Z" fill="#0092E8"/>
<path d="M23.7244 20.0751C23.5884 20.1096 23.4351 20.142 23.3141 20.0686C23.2051 20.0016 23.1597 19.8688 23.123 19.7457C22.7527 18.5062 22.568 17.1458 21.9483 15.9991C21.7852 15.6979 21.5661 15.3955 21.24 15.2886C20.8869 15.172 20.4874 15.3221 20.2175 15.578C19.9476 15.8339 19.7834 16.1794 19.6409 16.5228C19.0557 17.934 18.7372 19.4391 18.3884 20.9216C18.301 21.293 18.2157 21.6612 18.1163 22.0304C18.0645 22.2248 18.0116 22.4191 17.9598 22.6124C17.9339 22.7096 17.908 22.8067 17.881 22.9039C17.8605 22.9806 17.8119 23.0821 17.8119 23.1609C17.7341 23.4503 17.6553 23.7407 17.5355 24.015C17.4858 24.1283 17.4264 24.2417 17.3314 24.3205C17.1316 24.4868 16.8174 24.4512 16.608 24.2978C16.3985 24.1445 16.2765 23.8984 16.1944 23.6511C16.0055 23.0821 15.8338 22.5044 15.6805 21.9235C15.2302 20.25 14.7843 18.5678 14.3524 16.8866C14.2596 16.5249 14.1646 16.1535 13.954 15.8447C13.7435 15.5359 13.3904 15.2962 13.0179 15.3264C12.721 15.3513 12.4618 15.5402 12.2621 15.7605C11.5322 16.5681 11.4685 17.7126 11.3098 18.7351C11.1241 19.925 10.8876 21.1116 10.5043 22.255C10.4741 22.3446 10.4406 22.4375 10.3715 22.5023C10.2171 22.6459 9.9666 22.5822 9.77981 22.485C9.32308 22.2485 8.95922 21.8771 8.60507 21.5111C6.70044 19.5417 4.82928 17.4729 3.55197 15.0295C2.90305 13.7878 2.34483 12.4295 2.12349 11.0443C1.90863 9.69892 1.97773 8.30392 2.39126 7.00285C2.5759 6.42196 2.82747 5.86266 3.14167 5.34007C4.07671 3.78095 5.57429 2.55655 7.35907 2.12574C8.95598 1.7392 10.6987 1.99617 12.1163 2.8254C12.5428 3.07482 12.9607 3.38146 13.4509 3.44408C13.9411 3.5067 14.5252 3.20114 14.5414 2.70771C14.5533 2.3514 14.2779 2.05448 14.0058 1.82342C12.0818 0.189797 9.33604 -0.373821 6.88831 0.24486C4.44058 0.863542 2.32972 2.60945 1.14418 4.838C0.41645 6.20601 0.0201917 7.75002 0.000756705 9.3005C-0.0337944 12.0829 1.11935 14.7131 2.53811 17.0497C3.70205 18.9662 5.11864 20.7089 6.66481 22.3295C6.66481 22.3295 8.30923 24.1748 8.95058 24.5591C9.11902 24.6606 9.30689 24.733 9.49692 24.7837C11.1975 25.2383 12.125 23.5982 12.4996 22.1956C12.6961 21.4582 12.7566 20.7045 12.8376 19.9476C12.8473 19.8559 12.8581 19.7598 12.925 19.6885C12.951 19.6604 12.9866 19.6399 13.0244 19.6356C13.1377 19.6227 13.1982 19.7295 13.236 19.8213C13.2965 19.9682 13.3418 20.1204 13.3785 20.2748C13.696 21.5996 14.048 22.9104 14.3773 24.2309C14.6558 25.2988 15.2799 26.1906 16.4611 26.4065C17.2655 26.5534 18.1336 26.2899 18.7199 25.7198C19.4282 25.031 19.6787 24.0106 19.899 23.0475C20.143 21.9786 20.387 20.9097 20.6343 19.8408C20.6591 19.7339 20.7433 19.6475 20.8513 19.6291C20.9819 19.6075 21.051 19.7069 21.0985 19.8019C21.3231 20.251 21.3102 20.7801 21.5639 21.2185C21.7896 21.6083 22.2614 21.7853 22.6955 21.8069C23.1273 21.8285 23.5538 21.7195 23.9717 21.6104C24.2589 21.5359 24.5461 21.4603 24.8344 21.3858L26.3525 20.9907L30.9478 19.8893C31.167 19.8321 31.3494 19.681 31.4444 19.4758C31.7144 18.896 31.1896 18.2622 30.5688 18.4198L23.7244 20.0751Z" fill="white"/>
<path d="M27.0994 1.25076C24.4358 0.320039 21.5864 0.89877 19.388 2.62417C19.0803 2.86602 18.7877 3.12624 18.5113 3.40373C17.7123 4.20596 17.0364 5.13452 16.5149 6.13974C16.3238 6.50793 16.1543 6.88799 16.0096 7.27669C15.9923 7.27669 15.9761 7.27561 15.9588 7.27561C14.4127 7.27561 13.1548 8.53349 13.1548 10.0797C13.1548 11.6258 14.4127 12.8837 15.9588 12.8837C17.505 12.8837 18.7629 11.6258 18.7629 10.0797C18.7629 9.24826 18.399 8.50002 17.8214 7.98607C18.4368 6.72171 19.1548 5.49515 20.1849 4.52232C21.46 3.31843 23.1768 2.62417 24.9378 2.76993C26.4538 2.89518 27.9157 3.62399 29.0041 4.6832C30.8752 6.50253 31.5587 9.28498 31.0577 11.8072C30.6107 14.0606 29.3323 16.6012 27.8639 18.4194C27.7613 18.5458 27.879 18.7293 28.0366 18.6915L30.4131 18.1149C30.4768 18.0998 30.533 18.061 30.5708 18.007C31.888 16.0786 32.8879 13.3706 33.1448 11.0428L33.1815 10.3334C33.1859 6.33841 30.9098 2.58422 27.0994 1.25292V1.25076ZM15.9588 11.5837C15.1285 11.5837 14.4537 10.9089 14.4537 10.0786C14.4537 9.24827 15.1285 8.57344 15.9588 8.57344C16.7891 8.57344 17.464 9.24827 17.464 10.0786C17.464 10.9089 16.7891 11.5837 15.9588 11.5837Z" fill="white"/>
<path d="M15.9573 8.57275C15.127 8.57275 14.4521 9.24758 14.4521 10.0779C14.4521 10.9082 15.127 11.583 15.9573 11.583C16.7876 11.583 17.4624 10.9082 17.4624 10.0779C17.4624 9.24758 16.7876 8.57275 15.9573 8.57275Z" fill="#0092E8"/>
<path d="M15.7643 13.5438C13.9396 13.5438 12.4561 12.0591 12.4561 10.2355C12.4561 10.0206 12.631 9.8457 12.8458 9.8457C13.0607 9.8457 13.2356 10.0206 13.2356 10.2355C13.2356 11.6305 14.3704 12.7642 15.7643 12.7642C15.9792 12.7642 16.1541 12.9391 16.1541 13.154C16.1541 13.3688 15.9792 13.5438 15.7643 13.5438Z" fill="#0092E8"/>
<path d="M26.4509 21.4689C25.4165 21.7388 24.4545 22.2344 23.6339 22.9211C21.1592 24.992 18.3249 27.3102 17.1134 28.1416C17.0389 28.1923 16.9579 28.2463 16.8673 28.2441C16.7733 28.242 16.6923 28.1815 16.6178 28.1232C15.6979 27.4009 14.7877 26.6667 13.8743 25.9368C13.411 25.5664 12.9478 25.1961 12.4846 24.8257C12.3734 24.7372 12.2622 24.6476 12.151 24.559C12.0009 24.4392 11.9901 24.3852 11.8519 24.5213C11.6824 24.7027 11.4999 24.856 11.3077 24.978C11.3077 24.978 11.3056 24.9791 11.3045 24.9801C11.3023 24.9812 11.2991 24.9834 11.2969 24.9845C11.2764 24.9974 11.257 25.0093 11.2365 25.0212C11.2354 25.0212 11.2332 25.0233 11.2322 25.0244C10.8985 25.2209 10.5357 25.3289 10.1535 25.344C10.1503 25.344 10.147 25.344 10.1427 25.344C10.1157 25.344 10.0898 25.3451 10.0628 25.3451C10.0337 25.3451 10.0045 25.3451 9.97428 25.3429C9.97428 25.3429 9.9732 25.3429 9.97212 25.3429C9.94297 25.3429 9.91489 25.3408 9.88574 25.3386C11.04 26.2952 12.1888 27.2594 13.3657 28.188C13.9304 28.6339 14.5005 29.0723 15.0868 29.4901C15.4992 29.7838 15.8901 30.1455 16.3717 30.3248C16.9083 30.5245 17.3369 30.3356 17.7947 30.0365C19.8052 28.7257 26.2814 23.2213 28.1558 21.7215C28.2918 21.6125 28.5153 21.4192 28.7637 21.1935C28.8749 21.0931 28.7788 20.9107 28.633 20.9452L26.4747 21.4624L26.452 21.4689H26.4509Z" fill="white"/>
<path d="M9.96924 25.4023C10.0047 25.4037 10.0401 25.405 10.0769 25.405C10.0414 25.405 10.006 25.405 9.96924 25.4023Z" fill="white"/>
<path d="M10.0552 25.4047C10.0897 25.4047 10.1229 25.4047 10.1574 25.4033C10.1229 25.4033 10.0897 25.4047 10.0552 25.4047Z" fill="white"/>
<path d="M9.88037 25.3984C9.9167 25.4011 9.95169 25.4025 9.98803 25.4038C9.95169 25.4025 9.9167 25.3998 9.88037 25.3984Z" fill="white"/>
<path d="M11.8445 24.5786C11.6728 24.746 11.5033 24.9058 11.3003 25.0353C11.4925 24.9123 11.675 24.76 11.8445 24.5786Z" fill="white"/>
<path d="M11.2305 25.0905C11.2587 25.0742 11.2854 25.0564 11.3136 25.04C11.2854 25.0579 11.2587 25.0742 11.2305 25.0905Z" fill="white"/>
<path d="M10.1494 25.4006C10.5316 25.3855 10.8944 25.2776 11.2281 25.0811C10.8998 25.2732 10.5295 25.3855 10.1494 25.4006Z" fill="white"/>
<path d="M26.3086 0.159304C26.2632 0.159304 29.4894 0.274835 31.8238 3.27755C32.0646 3.58635 32.5375 3.2484 32.3183 2.92448C31.298 1.41395 29.4948 0.0902025 26.3086 0.160385V0.159304Z" fill="#0092E8"/>
<path d="M3.97575 5.27441C3.97575 5.27441 2.32485 7.46733 2.71355 10.5823C2.75998 10.9548 3.31496 10.8976 3.28905 10.5229C3.17676 8.91848 3.26313 6.96958 3.97575 5.27441Z" fill="#0092E8"/>
</svg>
