<svg width="215" height="38" viewBox="0 0 215 38" fill="none" xmlns="http://www.w3.org/2000/svg">
<path d="M102.797 27.1788C102.797 21.5268 107.146 16.9375 112.49 16.9375C116.603 16.9375 120.087 19.7922 121.397 23.7655H119.275C118.097 20.9108 115.503 18.9522 112.49 18.9522C108.298 18.9522 104.893 22.6455 104.893 27.1788C104.893 31.7122 108.298 35.4055 112.49 35.4055C115.503 35.4055 118.096 33.4188 119.275 30.5922H121.423C120.114 34.5655 116.603 37.4202 112.49 37.4202C107.146 37.4202 102.797 32.8308 102.797 27.1788Z" fill="#1F416B"/>
<path d="M123.519 29.9777C123.519 25.8643 126.69 22.5337 130.593 22.5337C134.496 22.5337 137.667 25.8643 137.667 29.9777C137.667 34.091 134.496 37.4217 130.593 37.4217C126.69 37.4217 123.519 34.091 123.519 29.9777ZM130.593 35.519C133.397 35.519 135.676 33.0003 135.676 29.9777C135.676 26.955 133.397 24.4364 130.593 24.4364C127.789 24.4364 125.51 26.927 125.51 29.9777C125.51 33.0283 127.789 35.519 130.593 35.519Z" fill="#1F416B"/>
<path d="M140.809 22.9817H142.59V24.8844C143.612 23.4577 145.21 22.5337 147.096 22.5337C150.109 22.5337 152.859 24.8284 152.859 27.683V36.9737H150.868V27.795C150.868 25.9484 149.061 24.4364 146.834 24.4364C144.607 24.4364 142.8 25.947 142.8 27.795V36.9737H140.809V22.9817Z" fill="#1F416B"/>
<path d="M155.768 32.747H157.759C157.759 34.2017 159.12 35.5177 161.426 35.5177C163.155 35.5177 164.726 34.7617 164.726 33.391C164.726 31.9363 162.998 31.4043 161.059 30.8163C158.675 30.0883 155.976 29.1097 155.976 26.479C155.976 23.4004 159.224 22.5337 161.19 22.5337C164.177 22.5337 166.509 24.5484 166.509 27.039H164.518C164.518 25.7524 163.313 24.4363 161.034 24.4363C159.41 24.4363 157.968 25.1083 157.968 26.395C157.968 27.8217 159.697 28.3817 161.609 28.9417C164.02 29.6417 166.719 30.6763 166.719 33.335C166.719 36.4137 163.471 37.4203 161.322 37.4203C158.204 37.4203 155.769 35.3217 155.769 32.747H155.768Z" fill="#1F416B"/>
<path d="M169.653 32.2721V22.9814H171.644V32.1601C171.644 34.0068 173.451 35.5188 175.678 35.5188C177.905 35.5188 179.713 34.0081 179.713 32.1601V22.9814H181.704V36.9735H179.922V35.0708C178.9 36.4975 177.302 37.4215 175.416 37.4215C172.403 37.4215 169.653 35.1268 169.653 32.2721Z" fill="#1F416B"/>
<path d="M185.685 16.4897H187.676V36.9737H185.685V16.4897Z" fill="#1F416B"/>
<path d="M202.05 35.1259H197.397C196.297 35.1259 195.406 34.2579 195.406 33.1672V24.8846H199.414V22.9819H195.406V19.2886H193.415V22.9819H190.401V24.8846H193.415V33.1672C193.415 35.2939 195.196 36.9726 197.397 36.9726H204.111C203.536 36.6206 202.999 36.1832 202.513 35.6659C202.35 35.4926 202.196 35.3112 202.049 35.1259H202.05Z" fill="#1F416B"/>
<path d="M200.854 29.9777C200.854 25.8643 204.024 22.5337 207.796 22.5337C210.049 22.5337 212.014 23.7364 213.219 25.6123V22.9817H215V36.9737H213.219V34.343C212.014 36.2177 210.049 37.4217 207.796 37.4217C204.024 37.4217 200.854 34.091 200.854 29.9777ZM207.927 35.519C210.731 35.519 213.01 33.0283 213.01 29.9777C213.01 26.927 210.731 24.4364 207.927 24.4364C205.124 24.4364 202.844 26.927 202.844 29.9777C202.844 33.0283 205.124 35.519 207.927 35.519Z" fill="#1F416B"/>
<path d="M81.9645 23.7515C81.4802 22.5502 80.8174 21.4995 79.9748 20.5995C79.131 19.6982 78.1311 18.9848 76.9727 18.4555C75.8143 17.9275 74.5611 17.6635 73.2117 17.6635C71.8623 17.6635 70.6366 17.9222 69.4669 18.4382C68.2973 18.9555 67.275 19.6581 66.3975 20.5461C65.5199 21.4355 64.8234 22.4861 64.3066 23.6981C63.9821 24.4581 63.7599 25.2475 63.6388 26.0675V15.8408C63.6388 13.8835 62.1684 12.2942 60.3434 12.2622C59.2374 12.2435 58.1964 12.8248 57.5461 13.7822L53.2932 20.0448C52.4719 21.2541 50.7855 21.2568 49.9616 20.0488L45.6539 13.7355C45.0223 12.8088 44.0137 12.2622 42.9414 12.2622H42.9402C41.089 12.2622 39.5898 13.8648 39.5898 15.8408V36.0435C39.5898 36.8381 40.1928 37.4835 40.938 37.4835H43.3022C44.0461 37.4835 44.6503 36.8395 44.6503 36.0435V34.7595C44.6503 30.8715 44.6503 26.9822 44.6503 23.0942C44.6503 22.8382 44.6778 22.5275 44.9511 22.4635C45.1084 22.4261 45.2719 22.4928 45.3768 22.6248C46.4291 23.9515 47.183 25.6688 48.5611 26.6835C49.8867 27.6595 51.6355 27.9355 53.1747 27.4461C55.3666 26.7515 56.4713 24.6115 57.7545 22.7648C57.8519 22.6248 57.9555 22.4795 58.1465 22.4662C58.2588 22.4595 58.3712 22.5008 58.4498 22.5848C58.5821 22.7262 58.5846 22.9261 58.5834 23.1141C58.5784 24.7701 58.5809 26.4261 58.5809 28.0808V36.0421C58.5809 36.8368 59.1838 37.4821 59.929 37.4821H62.2932C63.0371 37.4821 63.6413 36.8381 63.6413 36.0421V29.0635C63.7599 29.8661 63.9771 30.6421 64.2916 31.3888C64.7972 32.5901 65.4837 33.6408 66.3488 34.5408C67.2138 35.4421 68.2374 36.1501 69.4182 36.6661C70.5991 37.1821 71.8636 37.4408 73.213 37.4408C74.0231 37.4408 74.8207 37.3435 75.6084 37.1501C76.3948 36.9568 77.1487 36.6848 77.869 36.3341C78.588 35.9835 79.252 35.5595 79.8587 35.0635C80.4653 34.5675 80.9934 34.0048 81.444 33.3755L79.9348 32.3875C78.6317 31.5341 77.0276 31.4062 75.6146 32.0261C75.6071 32.0301 75.5996 32.0328 75.5909 32.0368C74.8145 32.3728 74.0218 32.5408 73.213 32.5408C72.0883 32.5408 71.1608 32.2142 70.4306 31.5608C69.6991 30.9075 69.1873 30.1288 68.8952 29.2262H81.8222C82.2578 29.2262 82.6211 28.8701 82.6573 28.4061V28.3981C82.6798 28.1101 82.6922 27.8341 82.6922 27.5701C82.6922 26.2248 82.4501 24.9528 81.967 23.7515H81.9645ZM69.0288 25.5168C69.3883 24.7008 69.9225 24.0035 70.6316 23.4275C71.3393 22.8515 72.2006 22.5621 73.2117 22.5621C74.2228 22.5621 75.0891 22.8502 75.8093 23.4275C76.5283 24.0035 77.0576 24.7008 77.3946 25.5168H69.0288Z" fill="#4A91E5"/>
<path d="M98.3037 11.5005C96.9069 11.5005 95.7735 12.7098 95.7735 14.2031V19.7885C95.0533 19.1645 94.2606 18.6538 93.3956 18.2578C92.5293 17.8618 91.6243 17.6631 90.6806 17.6631C89.4211 17.6631 88.229 17.9218 87.1056 18.4378C85.9809 18.9551 84.9973 19.6578 84.1547 20.5458C83.422 21.3191 82.8241 22.2138 82.3635 23.2311C82.4047 23.3245 82.4446 23.4191 82.482 23.5151C82.9938 24.7871 83.2535 26.1511 83.2535 27.5711C83.2535 27.8458 83.241 28.1418 83.2173 28.4485V28.4591C83.1561 29.2271 82.5432 29.8284 81.8205 29.8284H81.6807C81.7992 30.3618 81.959 30.8818 82.1637 31.3898C82.6468 32.5911 83.3046 33.6418 84.1372 34.5418C84.9686 35.4431 85.9472 36.1511 87.0719 36.6671C88.1966 37.1831 89.3999 37.4418 90.6806 37.4418C91.6256 37.4418 92.5243 37.2418 93.3794 36.8431C94.2332 36.4444 95.032 35.9178 95.7748 35.2644V36.7218C98.5696 36.7218 100.834 34.3018 100.834 31.3178V14.2031C100.834 12.7112 99.7018 11.5005 98.3037 11.5005ZM95.5363 29.5085C95.2879 30.1191 94.9547 30.6458 94.5377 31.0884C94.1208 31.5311 93.624 31.8844 93.0486 32.1471C92.4731 32.4111 91.859 32.5418 91.2036 32.5418C90.5483 32.5418 89.9342 32.4111 89.3587 32.1471C88.7833 31.8831 88.2865 31.5311 87.8695 31.0884C87.4526 30.6458 87.1193 30.1191 86.8709 29.5085C86.6225 28.8978 86.4989 28.2458 86.4989 27.5511C86.4989 26.8565 86.6225 26.2045 86.8709 25.5951C87.1193 24.9845 87.4526 24.4578 87.8695 24.0151C88.2865 23.5725 88.7833 23.2191 89.3587 22.9565C89.9342 22.6938 90.5495 22.5618 91.2036 22.5618C91.8577 22.5618 92.4731 22.6938 93.0486 22.9565C93.624 23.2205 94.1208 23.5725 94.5377 24.0151C94.9547 24.4578 95.2879 24.9845 95.5363 25.5951C95.7847 26.2058 95.9096 26.8578 95.9096 27.5511C95.9096 28.2445 95.7847 28.8978 95.5363 29.5085Z" fill="#4A91E5"/>
<path d="M27.3727 24.7486C27.2154 24.7912 27.0382 24.8312 26.8996 24.7406C26.7735 24.6579 26.7211 24.4939 26.6787 24.3432C26.2518 22.8152 26.0383 21.1392 25.3231 19.7259C25.1346 19.3539 24.8812 18.9819 24.5054 18.8499C24.0973 18.7059 23.6379 18.8912 23.3258 19.2059C23.0138 19.5206 22.824 19.9472 22.6605 20.3712C21.9852 22.1112 21.617 23.9646 21.215 25.7926C21.1139 26.2512 21.0153 26.7032 20.9005 27.1592C20.8406 27.3979 20.7794 27.6379 20.7195 27.8766C20.6895 27.9966 20.6596 28.1152 20.6296 28.2352C20.6059 28.3299 20.5497 28.4552 20.5497 28.5512C20.4598 28.9072 20.37 29.2659 20.2302 29.6032C20.1727 29.7432 20.1041 29.8819 19.9942 29.9792C19.7633 30.1846 19.4013 30.1406 19.1592 29.9512C18.917 29.7619 18.7759 29.4579 18.6823 29.1539C18.4639 28.4526 18.2666 27.7406 18.0894 27.0246C17.5701 24.9619 17.0546 22.8886 16.5578 20.8166C16.4504 20.3699 16.3406 19.9126 16.0984 19.5326C15.8563 19.1526 15.4481 18.8566 15.0187 18.8939C14.6767 18.9246 14.3771 19.1566 14.1474 19.4286C13.3048 20.4232 13.2324 21.8339 13.0489 23.0939C12.8355 24.5606 12.5621 26.0219 12.119 27.4312C12.084 27.5419 12.0453 27.6566 11.9654 27.7352C11.7869 27.9112 11.4986 27.8326 11.2826 27.7139C10.7559 27.4232 10.3352 26.9646 9.92828 26.5139C7.73009 24.0872 5.57186 21.5379 4.09766 18.5246C3.34871 16.9939 2.7046 15.3206 2.44871 13.6126C2.19282 11.9046 2.2802 10.2352 2.75828 8.63122C2.97173 7.91522 3.26258 7.22588 3.62332 6.58188C4.70182 4.66055 6.43066 3.15121 8.49028 2.61921C10.3327 2.14321 12.3437 2.45921 13.9801 3.48188C14.4719 3.78988 14.955 4.16721 15.5205 4.24455C16.0859 4.32188 16.76 3.94588 16.7787 3.33655C16.7925 2.89655 16.4754 2.53254 16.1608 2.24721C13.9402 0.233876 10.7721 -0.46079 7.94854 0.301877C5.12498 1.06321 2.68838 3.21655 1.32029 5.96188C0.480209 7.64855 0.0233451 9.55122 0.000876422 11.4619C-0.0390679 14.8912 1.29158 18.1326 2.92804 21.0126C4.27117 23.3739 5.90514 25.5219 7.6889 27.5192C7.6889 27.5192 9.58625 29.7939 10.3265 30.2672C10.5212 30.3926 10.7371 30.4819 10.9568 30.5446C12.9191 31.1046 13.9889 29.0832 14.4208 27.3552C14.6479 26.4472 14.7178 25.5166 14.8115 24.5859C14.8227 24.4726 14.8352 24.3539 14.9126 24.2659C14.9425 24.2312 14.9837 24.2059 15.0274 24.2006C15.1572 24.1846 15.2284 24.3166 15.2721 24.4299C15.342 24.6112 15.3944 24.7992 15.4368 24.9899C15.8026 26.6219 16.2083 28.2379 16.5902 29.8659C16.911 31.1819 17.6313 32.2806 18.9956 32.5472C19.9231 32.7286 20.9254 32.4032 21.602 31.7019C22.4196 30.8539 22.7079 29.5952 22.9613 28.4086C23.2422 27.0912 23.5243 25.7739 23.8089 24.4566C23.8376 24.3246 23.9337 24.2179 24.0598 24.1966C24.2109 24.1712 24.2895 24.2926 24.3444 24.4086C24.6041 24.9619 24.5891 25.6152 24.8812 26.1539C25.1421 26.6339 25.6863 26.8526 26.1868 26.8792C26.6849 26.9059 27.1767 26.7712 27.6598 26.6366C27.9918 26.5446 28.3226 26.4526 28.6547 26.3592C29.2388 26.1966 29.8218 26.0339 30.406 25.8726L35.7086 24.5152C35.9607 24.4446 36.1717 24.2579 36.2815 24.0046C36.5936 23.2899 35.9869 22.5086 35.2717 22.7032L27.3752 24.7432L27.3727 24.7486Z" fill="#1F416B"/>
<path d="M31.266 1.546C28.1916 0.399333 24.9049 1.11266 22.3685 3.23933C22.014 3.53666 21.6757 3.858 21.3574 4.19933C20.4362 5.18866 19.6547 6.33266 19.0543 7.57133C18.8346 8.02466 18.6387 8.49266 18.4714 8.97266C18.4514 8.97266 18.4327 8.97133 18.4127 8.97133C16.629 8.97133 15.1772 10.522 15.1772 12.4273C15.1772 14.3327 16.629 15.8833 18.4127 15.8833C20.1965 15.8833 21.6482 14.3327 21.6482 12.4273C21.6482 11.402 21.2276 10.4807 20.5622 9.84733C21.2725 8.28866 22.1001 6.778 23.2897 5.578C24.7601 4.094 26.7411 3.23933 28.7733 3.41933C30.5221 3.574 32.2085 4.47133 33.4655 5.77666C35.6237 8.01933 36.4126 11.4473 35.8347 14.5567C35.3179 17.334 33.8437 20.4647 32.1498 22.706C32.0325 22.862 32.1673 23.0887 32.3495 23.0407L35.092 22.33C35.1656 22.3113 35.2305 22.2633 35.273 22.1967C36.7933 19.8207 37.9467 16.4833 38.2426 13.614L38.285 12.7393C38.29 7.81533 35.6637 3.18866 31.2673 1.54733L31.266 1.546ZM18.4115 14.2807C17.4541 14.2807 16.6752 13.4487 16.6752 12.426C16.6752 11.4033 17.4541 10.5713 18.4115 10.5713C19.3689 10.5713 20.1478 11.4033 20.1478 12.426C20.1478 13.4487 19.3689 14.2807 18.4115 14.2807Z" fill="#1F416B"/>
<path d="M18.4111 10.5698C17.4537 10.5698 16.6748 11.4018 16.6748 12.4245C16.6748 13.4472 17.4537 14.2792 18.4111 14.2792C19.3685 14.2792 20.1475 13.4472 20.1475 12.4245C20.1475 11.4018 19.3685 10.5698 18.4111 10.5698Z" fill="#4A91E5"/>
<path d="M30.5133 26.4671C29.3187 26.7991 28.209 27.4111 27.2628 28.2564C24.4068 30.8084 21.1376 33.6658 19.7383 34.6911C19.6522 34.7538 19.5586 34.8204 19.4537 34.8178C19.3451 34.8151 19.2515 34.7404 19.1654 34.6684C18.1031 33.7791 17.0533 32.8738 15.9998 31.9724C15.4655 31.5164 14.93 31.0591 14.3958 30.6031C14.2672 30.4937 14.1386 30.3844 14.0113 30.2738C13.8378 30.1258 13.8266 30.0591 13.6655 30.2271C13.4696 30.4511 13.2586 30.6391 13.0377 30.7898C13.0377 30.7898 13.0352 30.7911 13.0339 30.7924C13.0314 30.7938 13.0277 30.7964 13.0252 30.7978C13.0015 30.8138 12.979 30.8284 12.9553 30.8431C12.954 30.8431 12.9515 30.8458 12.9503 30.8471C12.5646 31.0898 12.1464 31.2231 11.7058 31.2404C11.702 31.2404 11.6983 31.2404 11.6933 31.2404C11.6633 31.2404 11.6321 31.2418 11.6009 31.2418C11.5672 31.2418 11.5335 31.2418 11.4998 31.2391C11.4998 31.2391 11.4986 31.2391 11.4973 31.2391C11.4636 31.2391 11.4312 31.2364 11.3975 31.2338C12.7294 32.4124 14.055 33.6004 15.4131 34.7458C16.0647 35.2951 16.7225 35.8364 17.3991 36.3498C17.8747 36.7111 18.3266 37.1564 18.882 37.3777C19.5012 37.6244 19.9967 37.3911 20.5247 37.0231C22.844 35.4084 30.3161 28.6231 32.4806 26.7751C32.6379 26.6404 32.895 26.4018 33.1821 26.1244C33.3107 26.0004 33.1996 25.7751 33.0311 25.8191L30.5408 26.4564L30.5146 26.4644L30.5133 26.4671Z" fill="#1F416B"/>
<path d="M11.5015 31.2432C11.5404 31.2447 11.5793 31.2462 11.6183 31.2462C11.5793 31.2462 11.5404 31.2463 11.5015 31.2432Z" fill="#1F416B"/>
<path d="M11.6021 31.2447C11.6378 31.2447 11.6722 31.2447 11.708 31.2432C11.6722 31.2432 11.6378 31.2447 11.6021 31.2447Z" fill="#1F416B"/>
<path d="M13.6669 30.2285C13.4685 30.4352 13.2737 30.6325 13.0391 30.7912C13.2613 30.6405 13.471 30.4512 13.6669 30.2285Z" fill="#1F416B"/>
<path d="M12.9565 30.8544C12.9857 30.8364 13.0132 30.8168 13.0424 30.7988C13.0132 30.8184 12.9857 30.8364 12.9565 30.8544Z" fill="#1F416B"/>
<path d="M11.7056 31.242C12.1462 31.2233 12.5656 31.09 12.9501 30.8486C12.5719 31.086 12.145 31.2233 11.7056 31.242Z" fill="#1F416B"/>
<path d="M30.356 0.200214C30.3036 0.200214 34.0271 0.342877 36.7196 4.04288C36.9967 4.42422 37.5435 4.00822 37.2901 3.60822C36.113 1.74688 34.0321 0.114877 30.356 0.201544V0.200214Z" fill="#4A91E5"/>
<path d="M4.58358 6.50977C4.58358 6.50977 2.67873 9.21243 3.12686 13.0511C3.18053 13.5098 3.82089 13.4391 3.79093 12.9778C3.66111 11.0004 3.76222 8.5991 4.58358 6.50977Z" fill="#4A91E5"/>
</svg>
