<svg width="70" height="70" viewBox="0 0 70 70" fill="none" xmlns="http://www.w3.org/2000/svg">
<path d="M35 69.9999C25.6522 69.9999 16.8619 66.3586 10.2516 59.7483C3.64129 53.138 0 44.3498 0 34.9999C0 25.6501 3.64129 16.8619 10.2516 10.2516C16.8619 3.64129 25.6502 0 35 0C44.3498 0 53.1381 3.64129 59.7484 10.2516C66.3587 16.8619 70 25.6501 70 34.9999C70 44.3498 66.3587 53.138 59.7484 59.7483C53.1381 66.3586 44.3498 69.9999 35 69.9999ZM35 3.26086C17.498 3.26086 3.25884 17.5 3.25884 35.002C3.25884 52.504 17.498 66.7431 35 66.7431C52.502 66.7431 66.7411 52.504 66.7411 35.002C66.7411 17.5 52.502 3.26086 35 3.26086Z" fill="#4A91E5"/>
<path d="M27.8113 35.0261C30.1136 35.0261 31.98 33.1597 31.98 30.8574C31.98 28.5551 30.1136 26.6887 27.8113 26.6887C25.509 26.6887 23.6426 28.5551 23.6426 30.8574C23.6426 33.1597 25.509 35.0261 27.8113 35.0261Z" fill="#4A91E5"/>
<path d="M41.5559 35.0261C43.8582 35.0261 45.7245 33.1597 45.7245 30.8574C45.7245 28.5551 43.8582 26.6887 41.5559 26.6887C39.2536 26.6887 37.3872 28.5551 37.3872 30.8574C37.3872 33.1597 39.2536 35.0261 41.5559 35.0261Z" fill="#4A91E5"/>
<path d="M34.5703 49.7061C30.2547 49.7061 26.1927 47.3409 22.4971 42.6771L21.4121 41.3083H48.3867L47.3461 42.667C47.1287 42.9529 41.9193 49.6477 34.6669 49.7081C34.6347 49.7081 34.6025 49.7081 34.5683 49.7081L34.5703 49.7061ZM24.9809 42.9971C28.0083 46.3305 31.2289 48.0172 34.5723 48.0172C34.5965 48.0172 34.6206 48.0172 34.6468 48.0172C39.1718 47.983 42.9379 44.8611 44.7837 42.9971H24.9809Z" fill="#4A91E5"/>
</svg>
